<svg style="position: absolute; width: 0; height: 0;" width="0" height="0" version="1.1" xmlns="http://www.w3.org/2000/svg" xmlns:xlink="http://www.w3.org/1999/xlink">
  <defs>
    <!-- Buttons Add -->
    <symbol id="svgicon__button--add" viewBox="-1 -1 19 19">
      <title>Add</title>
      <g id="Shape-+-Oval-6" stroke="none" stroke-width="1" fill="none" fill-rule="evenodd">
        <polygon id="Shape" stroke="#FFFFFF" stroke-width="0.5" fill="#FFFFFF" points="8.83229814 7.60248447 8.83229814 3.91304348 7.60248447 3.91304348 7.60248447 7.60248447 3.91304348 7.60248447 3.91304348 8.83229814 7.60248447 8.83229814 7.60248447 12.5217391 8.83229814 12.5217391 8.83229814 8.83229814 12.5217391 8.83229814 12.5217391 7.60248447"></polygon>
        <ellipse id="Oval-6" stroke="#FFFFFF" stroke-width="2" cx="8.2173913" cy="8.2173913" rx="8.2173913" ry="8.2173913"></ellipse>
      </g>
    </symbol>

    <!-- BEGIN AdZone Icons -->
    <symbol id="svgicon__web-ad" viewBox="0 0 70 66">
      <title>WebAd</title>
      <g id="Symbols" stroke="none" stroke-width="1" fill="none" fill-rule="evenodd">
        <g id="Web">
          <g id="Group-9">
            <polygon id="Fill-1" fill="#18CDE3" points="32 60.7788636 37.49576 60.7788636 37.49576 46.7788636 32 46.7788636"></polygon>
            <polygon id="Fill-2" fill="#18CDE3" points="16 65.5097727 53.7774 65.5097727 53.7774 60 16 60"></polygon>
            <path d="M35,45.2574257 L6,45.2574257 L6,6 L35,6 L64,6 L64,45.2574257 L35,45.2574257 Z" id="Combined-Shape" stroke="#00ACC1" stroke-width="12" fill="#FFFFFF"></path>
            <polygon id="Fill-10-Copy-4" fill="#18CDE3" points="0 51 34.74788 51 34.74788 5.68434189e-14 0 5.68434189e-14"></polygon>
            <polygon id="Fill-10" fill="#FFFFFF" points="6 45.2574257 35 45.2574257 35 6 6 6"></polygon>
            <polygon id="Fill-10-Copy" fill="#D8D7DA" points="35 45.2574257 64 45.2574257 64 6 35 6"></polygon>
            <circle id="Oval-117-Copy" fill="#D52B2B" cx="12" cy="12" r="3"></circle>
            <circle id="Oval-117-Copy-2" fill="#D52B2B" cx="20" cy="12" r="3"></circle>
            <circle id="Oval-117-Copy-3" fill="#D52B2B" cx="28" cy="12" r="3"></circle>
          </g>
        </g>
      </g>
    </symbol>

    <symbol id="svgicon__advertising" viewBox="0 0 65 65">
      <title>Advertising</title>
      <g id="Page-1" stroke="none" stroke-width="1" fill="none" fill-rule="evenodd">
        <g id="AddZone_TrafficType" transform="translate(-887.000000, -243.000000)">
          <g id="Group-19" transform="translate(528.000000, 243.000000)">
            <g id="Group-8" transform="translate(359.000000, 0.000000)">
              <rect id="Rectangle-418" fill="#00ACC1" x="48.5074627" y="0" width="16.4925373" height="16.4925373"></rect>
              <rect id="Rectangle-418-Copy" fill="#00ACC1" x="24.2537313" y="0" width="16.4925373" height="16.4925373"></rect>
              <rect id="Rectangle-418-Copy-2" fill="#18CDE3" x="0" y="0" width="16.4925373" height="16.4925373"></rect>
              <rect id="Rectangle-418-Copy-5" fill="#00ACC1" x="48.5074627" y="24.2537313" width="16.4925373" height="16.4925373"></rect>
              <rect id="Rectangle-418-Copy-4" fill="#FF7C7C" x="24.2537313" y="24.2537313" width="16.4925373" height="16.4925373"></rect>
              <rect id="Rectangle-418-Copy-3" fill="#18CDE3" x="0" y="24.2537313" width="16.4925373" height="16.4925373"></rect>
              <rect id="Rectangle-418-Copy-8" fill="#00ACC1" x="48.5074627" y="48.5074627" width="16.4925373" height="16.4925373"></rect>
              <rect id="Rectangle-418-Copy-7" fill="#00ACC1" x="24.2537313" y="48.5074627" width="16.4925373" height="16.4925373"></rect>
              <rect id="Rectangle-418-Copy-6" fill="#18CDE3" x="0" y="48.5074627" width="16.4925373" height="16.4925373"></rect>
            </g>
          </g>
        </g>
      </g>
    </symbol>

    <symbol id="svgicon__popunder" viewBox="0 0 224 107">
      <title>Popunder</title>
      <g id="Page-1" stroke="none" stroke-width="1" fill="none" fill-rule="evenodd">
        <g id="AddZone_TrafficType" transform="translate(-543.000000, -510.000000)">
          <g id="Popunder-Preview" transform="translate(258.000000, 385.000000)">
            <g id="POPUP+hover-i" transform="translate(255.000000, 0.000000)">
              <g id="Pop-up">
                <g id="Group-9" transform="translate(30.000000, 117.000000)">
                  <path d="M97.7609934,90.1249772 L10.151906,90.1249772 C7.65102457,90.1249772 5.61686642,88.078562 5.61686642,85.5626111 L5.61686642,83.7686051 L102.296033,83.7686051 L102.296033,85.5626111 C102.296033,88.078562 100.261875,90.1249772 97.7609934,90.1249772 L97.7609934,90.1249772 Z M60.5310431,108.553571 L47.3818563,108.553571 L49.1759083,95.7756889 L58.7342933,95.7756889 L60.5310431,108.553571 Z M10.151906,21.3366548 L97.7609934,21.3366548 C100.261875,21.3366548 102.296033,23.3830701 102.296033,25.899021 L102.296033,78.1178935 L5.61686642,78.1178935 L5.61686642,25.899021 C5.61686642,23.3830701 7.65102457,21.3366548 10.151906,21.3366548 L10.151906,21.3366548 Z M10.151906,15.6859432 C4.55392436,15.6859432 0,20.2673079 0,25.899021 L0,85.5626111 C0,91.1970383 4.55392436,95.7756889 10.151906,95.7756889 L43.5023876,95.7756889 L41.7083356,108.556285 L33.2938273,108.556285 C31.7425794,108.556285 30.4853941,109.818332 30.4853941,111.381641 C30.4853941,112.939522 31.7425794,114.204283 33.2938273,114.204283 L44.1471672,114.204283 L63.7603366,114.204283 L74.6163743,114.204283 C76.1676223,114.204283 77.4248075,112.939522 77.4248075,111.381641 C77.4248075,109.818332 76.1676223,108.556285 74.6163743,108.556285 L66.201866,108.556285 L64.4105119,95.7756889 L97.7609934,95.7756889 C103.358975,95.7756889 107.912899,91.1970383 107.912899,85.5626111 L107.912899,25.899021 C107.912899,20.2673079 103.358975,15.6859432 97.7609934,15.6859432 L10.151906,15.6859432 Z" id="Fill-1" fill-opacity="0.333616395" fill="#9B9B9B"></path>
                  <g id="Group-17" transform="translate(13.417349, 29.148058)" fill="#DEDEDE">
                    <rect id="Rectangle-425-Copy-6" x="0" y="0" width="40.9623713" height="5.42685011" rx="2.71342506"></rect>
                    <rect id="Rectangle-425-Copy-5" x="29.2742166" y="12.8502003" width="21.886297" height="2.50470005" rx="1.25235003"></rect>
                    <rect id="Rectangle-425-Copy-26" x="58.5484332" y="12.8502003" width="21.886297" height="2.50470005" rx="1.25235003"></rect>
                    <rect id="Rectangle-425-Copy-4" x="29.2742166" y="16.5216861" width="21.886297" height="2.50470005" rx="1.25235003"></rect>
                    <rect id="Rectangle-425-Copy-19" x="0" y="24.4765719" width="80.2418797" height="2.50470005" rx="1.25235003"></rect>
                    <rect id="Rectangle-425-Copy-12" x="0" y="28.1480577" width="80.2418797" height="2.50470005" rx="1.25235003"></rect>
                    <rect id="Rectangle-425-Copy-23" x="0" y="33.0433721" width="80.2418797" height="2.50470005" rx="1.25235003"></rect>
                    <rect id="Rectangle-425-Copy-22" x="0" y="36.7148579" width="80.2418797" height="2.50470005" rx="1.25235003"></rect>
                    <rect id="Rectangle-425-Copy-24" x="0" y="40.998258" width="80.2418797" height="2.50470005" rx="1.25235003"></rect>
                    <rect id="Rectangle-425-Copy-10" x="0.609879513" y="12.8502003" width="21.886297" height="2.50470005" rx="1.25235003"></rect>
                    <rect id="Rectangle-425-Copy-9" x="0.609879513" y="16.5216861" width="21.886297" height="2.50470005" rx="1.25235003"></rect>
                  </g>
                  <path d="M213.638101,90.1249772 L126.029013,90.1249772 C123.528132,90.1249772 121.493974,88.078562 121.493974,85.5626111 L121.493974,83.7686051 L218.17314,83.7686051 L218.17314,85.5626111 C218.17314,88.078562 216.138982,90.1249772 213.638101,90.1249772 L213.638101,90.1249772 Z M176.408151,108.553571 L163.258964,108.553571 L165.053016,95.7756889 L174.611401,95.7756889 L176.408151,108.553571 Z M126.029013,21.3366548 L213.638101,21.3366548 C216.138982,21.3366548 218.17314,23.3830701 218.17314,25.899021 L218.17314,78.1178935 L121.493974,78.1178935 L121.493974,25.899021 C121.493974,23.3830701 123.528132,21.3366548 126.029013,21.3366548 L126.029013,21.3366548 Z M126.029013,15.6859432 C120.431032,15.6859432 115.877107,20.2673079 115.877107,25.899021 L115.877107,85.5626111 C115.877107,91.1970383 120.431032,95.7756889 126.029013,95.7756889 L159.379495,95.7756889 L157.585443,108.556285 L149.170935,108.556285 C147.619687,108.556285 146.362502,109.818332 146.362502,111.381641 C146.362502,112.939522 147.619687,114.204283 149.170935,114.204283 L160.024275,114.204283 L179.637444,114.204283 L190.493482,114.204283 C192.04473,114.204283 193.301915,112.939522 193.301915,111.381641 C193.301915,109.818332 192.04473,108.556285 190.493482,108.556285 L182.078973,108.556285 L180.287619,95.7756889 L213.638101,95.7756889 C219.236083,95.7756889 223.790007,91.1970383 223.790007,85.5626111 L223.790007,25.899021 C223.790007,20.2673079 219.236083,15.6859432 213.638101,15.6859432 L126.029013,15.6859432 Z" id="Fill-1-Copy" fill-opacity="0.333616395" fill="#9B9B9B"></path>
                  <path d="M133.570885,30.7625775 C133.667261,30.2984285 134.264141,29.8123148 134.733305,29.8123148 L154.442495,29.8123148 C154.718227,29.8123148 154.941826,30.0356082 154.941826,30.3059507 L154.941826,68.3765085 C154.941826,68.6470983 154.718106,68.8701443 154.439851,68.8701443 L125.587757,68.8701443 C125.516335,68.8701443 125.629329,69.009228 125.64445,68.9364022 L133.570885,30.7625775 L133.570885,30.7625775 Z M128.675307,29.7460569 L120.748872,67.9198816 C120.089612,71.0948899 122.344264,73.8701443 125.587757,73.8701443 L154.439851,73.8701443 C157.476162,73.8701443 159.941826,71.4119014 159.941826,68.3765085 L159.941826,30.3059507 C159.941826,27.2726561 157.478125,24.8123148 154.442495,24.8123148 L134.733305,24.8123148 C131.893591,24.8123148 129.25325,26.962675 128.675307,29.7460569 L128.675307,29.7460569 Z" id="Rectangle-471-Copy-7" fill="#DEDEDE"></path>
                  <path d="M157.356186,30.7625775 C157.452562,30.2984285 158.049442,29.8123148 158.518606,29.8123148 L178.227796,29.8123148 C178.503528,29.8123148 178.727127,30.0356082 178.727127,30.3059507 L178.727127,68.3765085 C178.727127,68.6470983 178.503407,68.8701443 178.225152,68.8701443 L149.373058,68.8701443 C149.301636,68.8701443 149.41463,69.009228 149.429751,68.9364022 L157.356186,30.7625775 L157.356186,30.7625775 Z M152.460608,29.7460569 L144.534173,67.9198816 C143.874913,71.0948899 146.129565,73.8701443 149.373058,73.8701443 L178.225152,73.8701443 C181.261463,73.8701443 183.727127,71.4119014 183.727127,68.3765085 L183.727127,30.3059507 C183.727127,27.2726561 181.263426,24.8123148 178.227796,24.8123148 L158.518606,24.8123148 C155.678892,24.8123148 153.038551,26.962675 152.460608,29.7460569 L152.460608,29.7460569 Z" id="Rectangle-471-Copy-6" fill="#DEDEDE"></path>
                  <path d="M212.34829,37.1029436 L212.34829,28.3153036 C212.34829,27.7627216 211.900107,27.3123148 211.347246,27.3123148 L181.650295,27.3123148 C181.097358,27.3123148 180.53011,27.7426516 180.383143,28.2734988 L177.938675,37.1029436 L124.374502,37.1029436 C122.69993,37.1029436 121.366023,38.4452339 121.366023,40.101033 L121.366023,75.1031123 C121.366023,76.7604252 122.712965,78.1012016 124.374502,78.1012016 L215.328386,78.1012016 C217.002958,78.1012016 218.336866,76.7589113 218.336866,75.1031123 L218.336866,40.101033 C218.336866,38.44372 216.989924,37.1029436 215.328386,37.1029436 L212.34829,37.1029436 Z" id="Combined-Shape" stroke="#DEDEDE" stroke-width="5" fill="#00ACC1"></path>
                  <text id="Ad" font-family="Roboto-Bold, Roboto" font-size="14.6371083" font-weight="bold" fill="#FFFFFF">
                    <tspan x="130.846552" y="58.8340009">Ad</tspan>
                  </text>
                  <g id="Group-16" transform="translate(201.870119, 31.595715)" fill="#FFFFFF">
                    <g id="Group-20">
                      <path d="M1.65236816,0.587686846 L4.93192213,3.87818263 C5.30716308,4.25467553 5.31038262,4.86186083 4.93328162,5.24021998 C4.5587915,5.61595954 3.95086747,5.61520145 3.57577343,5.23885596 L0.296219457,1.94836017 C-0.0790214927,1.57186727 -0.0822410336,0.96468197 0.294859967,0.58632282 C0.669350091,0.210583257 1.27727412,0.211341349 1.65236816,0.587686846 Z" id="Rectangle-425-Copy-20"></path>
                      <path d="M4.93328162,0.58632282 C4.5587915,0.210583257 3.95086747,0.211341349 3.57577343,0.587686846 L0.296219457,3.87818263 C-0.0790214927,4.25467553 -0.0822410336,4.86186083 0.294859967,5.24021998 L0.294859967,5.24021998 C0.669350091,5.61595954 1.27727412,5.61520145 1.65236816,5.23885596 L4.93192213,1.94836017 C5.30716308,1.57186727 5.31038262,0.96468197 4.93328162,0.58632282 L4.93328162,0.58632282" id="Rectangle-425-Copy-21"></path>
                    </g>
                  </g>
                  <g id="Group-18" transform="translate(96.647088, 20.950044) rotate(19.000000) translate(-96.647088, -20.950044) translate(79.647088, 5.450044)">
                    <use id="Path-898" stroke="#00ACC1" mask="url(#mask-2)" stroke-width="10" stroke-linecap="round" stroke-linejoin="round" xlink:href="#path-1"></use>
                    <path d="M26.7237521,2.76445961 C21.2845845,1.15271577 13.994026,1.99424373 8.78759668,5.42410645 C2.12168523,9.81543875 -0.737490022,17.7643721 1.46535878,28.9372628 C1.6256067,29.7500433 2.41440207,30.2790254 3.22718254,30.1187775 C4.03996302,29.9585296 4.56894518,29.1697342 4.40869726,28.3569537 C2.43077164,18.3248777 4.84457698,11.6141391 10.4379841,7.92934526 C14.8741289,5.00692627 21.248959,4.27109818 25.8714197,5.64083398 C26.6657086,5.87619906 27.500408,5.42310183 27.7357731,4.62881298 C27.9711382,3.83452413 27.518041,2.99982469 26.7237521,2.76445961 L26.7237521,2.76445961 Z" id="Path-167" fill="#00ACC1"></path>
                  </g>
                  <g id="Page-1" transform="translate(68.306505, 32.207629)">
                    <path d="M27.8180355,29.5129578 L21.2213511,22.8936159 C21.0192348,22.6908252 20.7465502,22.5790526 20.4647078,22.5790526 C20.4183805,22.5790526 20.3716223,22.5820793 20.3251872,22.5882408 C19.995186,22.631696 19.7042937,22.8267036 19.5380541,23.1158641 L17.320377,26.9686702 L10.9801089,11.0173912 L26.8767294,17.3796776 L23.0364117,19.6051861 C22.7483205,19.7719803 22.5539613,20.0638432 22.5106507,20.3949454 C22.4672323,20.7257233 22.5796029,21.0580146 22.8149025,21.2940992 L29.4119101,27.9134412 L27.8180355,29.5129578 Z M31.6818401,27.1539491 L25.3140988,20.7647465 L29.8569754,18.131819 C30.2119718,17.9260016 30.4186131,17.5350135 30.3889852,17.124784 C30.3595727,16.7144464 30.0991702,16.3571846 29.7183167,16.2048755 L9.46014245,8.09703286 C9.06291279,7.93791354 8.60955167,8.03163396 8.30713137,8.33495515 C8.00471106,8.63849254 7.91130229,9.09336624 8.06978475,9.49181311 L16.1494814,29.8198462 C16.3013918,30.2018623 16.6574656,30.4632417 17.0664387,30.4928604 C17.4754118,30.5226953 17.8650998,30.3152564 18.0701251,29.9589675 L20.6938663,25.4009342 L27.0613922,31.7902449 C27.2620001,31.9917384 27.5342538,32.1048083 27.8180355,32.1048083 C28.1018171,32.1048083 28.3739631,31.9917384 28.5745711,31.7902449 L31.6818401,28.6722846 C32.0997554,28.252975 32.0997554,27.5732588 31.6818401,27.1539491 L31.6818401,27.1539491 Z" id="Fill-1" stroke="#00ACC1" fill="#00ACC1"></path>
                    <path d="M27.8180355,29.5129578 L21.2213511,22.8936159 C21.0192348,22.6908252 20.7465502,22.5790526 20.4647078,22.5790526 C20.4183805,22.5790526 20.3716223,22.5820793 20.3251872,22.5882408 C19.995186,22.631696 19.7042937,22.8267036 19.5380541,23.1158641 L17.320377,26.9686702 L10.9801089,11.0173912 L26.8767294,17.3796776 L23.0364117,19.6051861 C22.7483205,19.7719803 22.5539613,20.0638432 22.5106507,20.3949454 C22.4672323,20.7257233 22.5796029,21.0580146 22.8149025,21.2940992 L29.4119101,27.9134412 L27.8180355,29.5129578 Z" id="Path-Copy" fill="#FFFFFF"></path>
                    <path d="M4.6971573,3.19449323 C4.27913421,2.77550785 3.60189373,2.77550785 3.18365517,3.19449323 C2.76573983,3.61391099 2.76573983,4.2936272 3.18365517,4.71304496 L5.56132305,7.09864563 C5.77022686,7.30813832 6.04420435,7.41310085 6.31807412,7.41310085 C6.59183614,7.41310085 6.86559816,7.30813832 7.07471744,7.09864563 C7.49252505,6.67933596 7.49252505,5.99951166 7.07471744,5.58020199 L4.6971573,3.19449323 Z" id="Fill-4" stroke="#00ACC1" fill="#00ACC1"></path>
                    <path d="M5.50282137,10.6167824 C5.50282137,10.0238683 5.02360316,9.54326746 4.43266073,9.54326746 L1.07016064,9.54326746 C0.479325951,9.54326746 0,10.0237602 0,10.6167824 C0,11.2095883 0.479218213,11.6904053 1.07016064,11.6904053 L4.43266073,11.6904053 C5.02360316,11.6902973 5.50282137,11.2095883 5.50282137,10.6167824" id="Fill-6" stroke="#00ACC1" fill="#00ACC1"></path>
                    <path d="M5.06906855,13.930507 L2.69118519,16.3163238 C2.27316211,16.7354173 2.27316211,17.4152416 2.69118519,17.8345513 C2.900089,18.0441521 3.17374328,18.1490065 3.44782852,18.1490065 C3.72159054,18.1490065 3.99535257,18.0441521 4.20425637,17.8345513 L6.58224746,15.4488425 C7.00016281,15.0296409 7.00016281,14.3497085 6.58224746,13.930507 C6.1645476,13.5113054 5.48709163,13.5113054 5.06906855,13.930507" id="Fill-8" stroke="#00ACC1" fill="#00ACC1"></path>
                    <path d="M10.5808322,5.52139703 C11.1716669,5.52139703 11.6508851,5.04057996 11.6508851,4.44766594 L11.6508851,1.07362299 C11.6508851,0.480817064 11.1717746,0 10.5808322,0 C9.98988974,0 9.51088701,0.480708966 9.51088701,1.07362299 L9.51088701,4.44777403 C9.51088701,5.04057996 9.98978201,5.52139703 10.5808322,5.52139703" id="Fill-10" stroke="#00ACC1" fill="#00ACC1"></path>
                    <path d="M14.6394269,6.91877162 C14.9135121,6.91877162 15.1872741,6.81413337 15.3961779,6.60442449 L17.7737381,4.21882382 C18.1917612,3.79951416 18.1917612,3.11968985 17.7737381,2.70048828 C17.3559305,2.28117862 16.6781513,2.28117862 16.2605592,2.70048828 L13.8828913,5.08608895 C13.464976,5.50529052 13.464976,6.18522293 13.8828913,6.60442449 C14.0917951,6.81413337 14.3656649,6.91877162 14.6394269,6.91877162" id="Fill-12" stroke="#00ACC1" fill="#00ACC1"></path>
                  </g>
                </g>
              </g>
            </g>
          </g>
        </g>
      </g>
    </symbol>

    <symbol id="svgicon__mobile-ad" viewBox="0 0 46 67">
      <title>MobileAd</title>
      <g id="Page-1" stroke="none" stroke-width="1" fill="none" fill-rule="evenodd">
        <g id="AddZone_TrafficType" transform="translate(-630.000000, -244.000000)">
          <g id="Group-19" transform="translate(528.000000, 243.000000)">
            <g id="Group-11" transform="translate(102.000000, 1.000000)">
              <g id="Group-7">
                <polyline id="Fill-1" fill="#18CDE3" points="22.7959333 35.7473949 8.0806 35.7473949 8.0806 8.01813508 22.7959333 8.01813508 22.7959333 0.000330740217 -6.6666667e-05 0.000330740217 -6.6666667e-05 66.1483741 22.7959333 66.1483741"></polyline>
                <path d="M22.7962,0 L22.7962,8.01780434 L37.5115333,8.01780434 L37.5115333,35.7470641 L22.7962,35.7470641 L22.7962,38.4240754 C22.8522,38.4227525 22.8522,58.1262702 22.7962,58.1256087 L22.7962,66.1480434 L45.5922,66.1480434 L45.5922,0 L22.7962,0 Z" id="Fill-4" fill="#00ACC1"></path>
                <polygon id="Fill-10" fill="#FFFFFF" points="6.9375 49.2641429 23.0439453 49.2641429 23.0439453 6.2679147 6.9375 6.2679147"></polygon>
                <polygon id="Fill-12" fill="#D8D7DA" points="23.0439453 49.2641429 39.1503906 49.2641429 39.1503906 6.2679147 23.0439453 6.2679147"></polygon>
              </g>
              <circle id="Oval-117" fill="#D52B2B" cx="23" cy="58" r="3"></circle>
            </g>
          </g>
        </g>
      </g>
    </symbol><!-- END AdZone Icons -->

    <symbol id="svgicon__waiting" viewBox="0 0 16 16">
      <title>Waiting</title>
      <g id="Page-1" stroke="none" stroke-width="1" fill="none" fill-rule="evenodd">
        <g id="Add-Site" transform="translate(-303.000000, -198.000000)">
          <rect id="Rectangle-21" fill="#FFFFFF" x="194" y="35" width="1251" height="1376"></rect>
          <g id="Waiting-icon" transform="translate(303.000000, 198.000000)">
            <g>
              <g id="Group-3" fill="#673AB7">
                <circle id="Oval-9" cx="8" cy="8" r="8"></circle>
              </g>
              <path d="M6.5,5.5 L6.5,9.5" id="Line" stroke="#FFFFFF" stroke-linecap="square"></path>
              <path d="M10.5,9.5 L6.5,9.5" id="Line-Copy" stroke="#FFFFFF" stroke-linecap="square"></path>
            </g>
          </g>
        </g>
      </g>
    </symbol>

    <symbol id="svgicon__copy" viewBox="0 0 19 19">
      <title>Copy</title>
      <g id="Page-1" stroke="none" stroke-width="1" fill="none" fill-rule="evenodd" opacity="0.5">
        <g id="Add-Site" transform="translate(-989.000000, -187.000000)" fill="#9B9B9B">
          <g id="Prove-ownership-Popup-Copy-3">
            <g id="Group-11" transform="translate(388.937918, 157.500000)">
              <g id="Group-3" transform="translate(601.000000, 30.000000)">
                <path d="M16.4502,16.4661773 L5.4456375,16.4661773 L5.4456375,5.22341443 L16.44645,5.22341443 L16.44645,16.4661773 L16.4502,16.4661773 Z M1.494075,12.9070021 L1.494075,1.66423918 L12.495075,1.66423918 L12.495075,3.74110515 L4.69845,3.74110515 C4.2846375,3.74110515 3.95145,4.07085773 3.95145,4.48040412 L3.95145,12.9070021 L1.494075,12.9070021 Z M17.1972,3.74110515 L13.9930125,3.74110515 L13.9930125,0.924940206 C13.9930125,0.515393814 13.6596375,0.185641237 13.245825,0.185641237 L0.747075,0.185641237 C0.3332625,0.185641237 7.49999999e-05,0.515393814 7.49999999e-05,0.924940206 L7.49999999e-05,13.6464866 C7.49999999e-05,14.056033 0.3332625,14.3857856 0.747075,14.3857856 L3.95145,14.3857856 L3.95145,17.2019505 C3.95145,17.6114969 4.2846375,17.9412495 4.69845,17.9412495 L17.1972,17.9412495 C17.6110125,17.9412495 17.9443875,17.6114969 17.9443875,17.2019505 L17.9443875,4.48040412 C17.9443875,4.07456907 17.6110125,3.74110515 17.1972,3.74110515 L17.1972,3.74110515 Z" id="Fill-1"></path>
                <path d="M8.140875,9.00725567 L13.8465,9.00725567 C14.2603125,9.00725567 14.5935,8.67750309 14.5935,8.2679567 C14.5935,7.85841031 14.2603125,7.52847216 13.8465,7.52847216 L8.140875,7.52847216 C7.7270625,7.52847216 7.393875,7.85841031 7.393875,8.2679567 C7.393875,8.67379175 7.7270625,9.00725567 8.140875,9.00725567" id="Fill-4"></path>
                <path d="M8.140875,14.1610825 L13.8465,14.1610825 C14.2603125,14.1610825 14.5935,13.8313299 14.5935,13.4217835 C14.5935,13.0122371 14.2603125,12.682299 13.8465,12.682299 L8.140875,12.682299 C7.7270625,12.682299 7.393875,13.0122371 7.393875,13.4217835 C7.393875,13.8313299 7.7270625,14.1610825 8.140875,14.1610825" id="Fill-6"></path>
              </g>
            </g>
          </g>
        </g>
      </g>
    </symbol>

    <symbol id="svgicon__not-verified" viewBox="0 0 34 34">
      <title>Not Verified</title>
      <g id="Page-1" stroke="none" stroke-width="1" fill="none" fill-rule="evenodd">
        <g id="Add-Site" transform="translate(-385.000000, -332.000000)">
          <g id="Prove-ownership-Popup-Copy-3">
            <g id="Group" transform="translate(385.000000, 332.000000)">
              <path d="M17,34 C26.3888407,34 34,26.3888407 34,17 C34,7.61115925 26.3888407,0 17,0 C7.61115925,0 0,7.61115925 0,17 C0,26.3888407 7.61115925,34 17,34 Z" id="Oval-2" fill="#FF7C7C"></path>
              <polygon id="Path" fill="#FFFFFF" points="10 16.8461538 11.6 15.1230769 15.7142857 19.5538462 24.4 10.2 26 11.9230769 15.7142857 23"></polygon>
            </g>
          </g>
        </g>
      </g>
    </symbol>

    <symbol id="svgicon__close">
      <title>Close</title>
      <g id="Page-1" stroke="none" stroke-width="1" fill="none" fill-rule="evenodd">
        <g id="Add-Site" transform="translate(-1113.000000, -158.000000)">
          <g id="Prove-ownership-Popup" transform="translate(430.000000, 146.500000)">
            <g id="Group-4">
              <mask id="mask-4" fill="white">
                <use xlink:href="#path-3"></use>
              </mask>
              <g id="bg-copy-3">
                <use fill="black" fill-opacity="1" filter="url(#filter-5)" xlink:href="#path-3"></use>
                <use stroke="url(#linearGradient-1)" mask="url(#mask-6)" stroke-width="1" fill="#FFFFFF" fill-rule="evenodd" xlink:href="#path-3"></use>
                <use stroke="url(#linearGradient-2)" mask="url(#mask-7)" stroke-width="1" xlink:href="#path-3"></use>
              </g>
              <g id="Material/Icons-black/close" opacity="0.15" mask="url(#mask-4)" fill="#000000">
                <g transform="translate(678.000000, 6.686567)" id="Shape">
                  <polygon points="19 6.4 17.6 5 12 10.6 6.4 5 5 6.4 10.6 12 5 17.6 6.4 19 12 13.4 17.6 19 19 17.6 13.4 12"></polygon>
                </g>
              </g>
            </g>
          </g>
        </g>
      </g>
    </symbol>

    <symbol id="svgicon__filters--shape" viewBox="74 15 9 5">
      <title>Shape</title>
      <polygon id="Shape-Copy-3" stroke="none" fill-rule="evenodd" points="74 15 78.5 20 83 15"></polygon>
    </symbol>

    <symbol id="svgicon__shape--up" viewBox="0 0 9 5">
      <title>Shape Up</title>
      <g id="Page-1" stroke="none" stroke-width="1" fill-rule="evenodd">
        <g id="Statistics" transform="translate(-541.000000, -305.000000)">
          <g id="Table" transform="translate(210.000000, 219.000000)">
            <g id="Rows" transform="translate(32.000000, 33.000000)">
              <g id="Group-33" transform="translate(0.000000, 41.000000)">
                <g id="Group-13-Copy" transform="translate(303.500000, 15.500000) scale(1, -1) translate(-303.500000, -15.500000) translate(298.000000, 10.000000)">
                  <g id="Expand">
                    <polygon id="Shape-Copy-2" points="1 4 5.5 9 10 4"></polygon>
                  </g>
                </g>
              </g>
            </g>
          </g>
        </g>
      </g>
    </symbol>

    <symbol id="svgicon__table--notification" viewBox="119 1 16 16">
      <title>Table Notification</title>
      <g id="notification-copy-6" stroke="none" stroke-width="1" fill="none" fill-rule="evenodd" transform="translate(119.000000, 1.000000)">
        <circle id="Oval-9" fill="#FF7C7C" cx="8" cy="8" r="8"></circle>
        <polygon id="Shape" fill="#FFFFFF" points="11 5.8 10.2 5 8 7.2 5.8 5 5 5.8 7.2 8 5 10.2 5.8 11 8 8.8 10.2 11 11 10.2 8.8 8"></polygon>
      </g>
    </symbol>

    <symbol id="svgicon__table--check" viewBox="155 2 16 16">
      <title>Table Check</title>
      <g id="Group-3" stroke="none" stroke-width="1" fill="none" fill-rule="evenodd" transform="translate(155.000000, 2.000000)">
        <circle id="Oval-9" fill="#9575CD" cx="8" cy="8" r="8"></circle>
        <g id="check" transform="translate(4.000000, 3.000000)" fill="#FFFFFF">
          <path d="M4.88955008,5.86620334 L1.28130666,2.25795992 L0.54996338,2.98930321 L4.88955008,7.32888991 L7.14844662,5.06999336 C7.77792656,4.44051342 9.03688645,3.18155353 9.03688645,3.18155353 L8.30554317,2.45021025 L4.88955008,5.86620334 Z" id="Shape" transform="translate(4.793425, 4.793425) rotate(-315.000000) translate(-4.793425, -4.793425) "></path>
        </g>
      </g>
    </symbol>

    <symbol id="svgicon__table--filter" viewBox="1152 3 10 11">
      <title>Filter</title>
      <path d="M1155.79796,7.72939631 C1155.90386,7.84370293 1155.962,7.99300893 1155.962,8.14746342 L1155.962,12.6987222 C1155.962,12.9726215 1156.29527,13.1116305 1156.49254,12.919067 L1157.77269,11.4641057 C1157.944,11.2602258 1158.03848,11.1593156 1158.03848,10.957495 L1158.03848,8.14848282 C1158.03848,7.99402833 1158.09766,7.84472233 1158.20253,7.73042601 L1161.87581,3.77742091 C1162.15095,3.48086829 1161.93916,3 1161.53215,3 L1152.4683,3 C1152.06131,3 1151.84847,3.4798386 1152.12465,3.77742091 L1155.79796,7.72939631 Z" id="Fill-1-Copy-12" stroke="none" fill="#B9E9EE" fill-rule="evenodd"></path>
    </symbol>

    <symbol id="svgicon__button--success" viewBox="0 0 18 14">
      <title>Success</title>
      <g id="Page-1" stroke="none" stroke-width="1" fill="none" fill-rule="evenodd">
        <g id="UI-kit" transform="translate(-403.000000, -619.000000)">
          <rect id="Back" fill="#FFFFFF" x="194" y="108" width="1251" height="1376"></rect>
          <g id="Buttons" transform="translate(238.000000, 164.000000)">
            <g id="Apply-Button" transform="translate(148.000000, 444.000000)">
              <path d="M47.548352,0 C46.4401936,0 44.6449527,3.6211178e-17 43.5481252,7.48898447e-17 L1.99859295,3.72693832e-17 C0.894800541,1.66860712e-17 0,0.90185079 0,2.00285922 L0,35.9971408 C0,37.1032894 0.886100957,38 1.99993442,38 L97.0000656,38 C98.1045989,38 99,37.0981492 99,35.9971408 L99,2.00285922 C99,0.896710617 98.0957275,0 97.0006307,0 L47.548352,0 Z" id="button-bg" fill="#8BC34A"></path>
              <g id="Material/Icons-black/check" transform="translate(14.000000, 6.000000)" fill="#FFFFFF">
                <polygon id="Shape" points="8.9999939 16.2 4.7999939 12 3.3999939 13.4 8.9999939 19 20.9999939 7 19.5999939 5.6"></polygon>
              </g>
            </g>
          </g>
        </g>
      </g>
    </symbol>

    <symbol id="svgicon__dashboard--statistics" viewBox="0 0 19 19">
      <title>Statistics</title>
      <path id="XMLID_177_" class="st0" d="M18.2,16.1h-3.9V9.4l3-3v2.1h1v-3v-1h-1h-3v1h2l-4.5,4.5l-3-3l0,0l0,0l-7.2,7.2v-12
      	c0-0.4-0.4-0.8-0.8-0.8C0.4,1.3,0,1.7,0,2.1v14c0,0.9,0.7,1.6,1.6,1.6h16.6c0.4,0,0.8-0.4,0.8-0.8v0C19,16.4,18.6,16.1,18.2,16.1z
      	 M17.3,5.4L17.3,5.4L17.3,5.4L17.3,5.4z M11.8,11.8L11.8,11.8l1.5-1.5v5.7h-3v-5.7L11.8,11.8L11.8,11.8z M8.8,8.9l0.5,0.5v6.7h-3
      	v-4.7L8.8,8.9z M5.3,16.1H1.6l3.7-3.7V16.1z"/>
    </symbol>

    <!-- Logout -->
    <symbol id="svgicon__logout" viewBox="0 0 20 17">
      <title>Logout</title>
      <g id="Page-1" stroke-width="1" fill-rule="evenodd" opacity="1">
        <g id="UI-kit" transform="translate(-1394.000000, -71.000000)" stroke-width="0.3">
          <g id="Header" transform="translate(-11.000000, 62.000000)">
            <g id="Quit-Icon" transform="translate(1406.000000, 10.000000)">
              <path d="M13.5329184,11.3205495 C13.6363586,11.4229121 13.7654505,11.4738462 13.9073684,11.4738462 C14.0494529,11.4738462 14.1787114,11.4229121 14.2818184,11.3205495 L17.7681342,7.87054945 C17.7941191,7.845 17.819771,7.81928571 17.8327634,7.7939011 C17.8327634,7.7939011 17.8457559,7.78104396 17.8457559,7.76835165 C17.8585818,7.7428022 17.8715743,7.71725275 17.8845668,7.7043956 C17.8845668,7.69153846 17.8845668,7.67901099 17.8973927,7.67901099 C17.9102186,7.6532967 17.9102186,7.6406044 17.9232111,7.61489011 C17.936037,7.57664835 17.936037,7.5510989 17.936037,7.51285714 C17.936037,7.47445055 17.936037,7.4489011 17.9232111,7.41065934 C17.9232111,7.38494505 17.9102186,7.3593956 17.8973927,7.3467033 C17.8973927,7.33384615 17.8973927,7.32115385 17.8845668,7.32115385 C17.8715743,7.2956044 17.8585818,7.26989011 17.8457559,7.24450549 C17.8457559,7.24450549 17.8457559,7.23164835 17.8327634,7.23164835 C17.819771,7.2060989 17.7941191,7.18054945 17.7681342,7.155 L14.2818184,3.705 C14.0752713,3.50043956 13.7394656,3.50043956 13.5329184,3.705 C13.3262047,3.9093956 13.3262047,4.24153846 13.5329184,4.4460989 L16.1154239,7.0017033 L7.7675882,7.0017033 C7.47059341,7.0017033 7.23822788,7.23164835 7.23822788,7.52554945 C7.23822788,7.81928571 7.47059341,8.04956044 7.7675882,8.04956044 L16.1154239,8.04956044 L13.5329184,10.6051648 C13.3262047,10.7838462 13.3262047,11.1161538 13.5329184,11.3205495" id="Fill-1"></path>
              <path d="M9.35916715,14.9111538 C9.65616194,14.9111538 9.88852747,14.6812088 9.88852747,14.3873077 L9.88852747,11.8237088 C9.88852747,11.5298077 9.65616194,11.2996978 9.35916715,11.2996978 C9.06217235,11.2996978 8.82980682,11.5298077 8.82980682,11.8237088 L8.82980682,13.8632967 L1.13567611,13.8632967 L1.13567611,1.12384615 L8.82980682,1.12384615 L8.82980682,3.1635989 C8.82980682,3.4575 9.06217235,3.68744505 9.35916715,3.68744505 C9.65616194,3.68744505 9.88852747,3.4575 9.88852747,3.1635989 L9.88852747,0.6 C9.88852747,0.305934066 9.65616194,0.075989011 9.35916715,0.075989011 L0.606315789,0.075989011 C0.309154425,0.075989011 0.0767888953,0.305934066 0.0767888953,0.6 L0.0767888953,14.3873077 C0.0897813765,14.6812088 0.322146906,14.9111538 0.606315789,14.9111538 L9.35916715,14.9111538 Z" id="Fill-2"></path>
            </g>
          </g>
        </g>
      </g>
    </symbol>

    <!-- Logo -->
    <symbol id="svgicon__logo" viewBox="0 0 23 23">
      <title>Logo</title>
      <path d="M10.271022,6.30585741 L10.271022,7.95522889 C10.271022,8.40507759 10.6367975,8.77311299 11.0838229,8.77311299 C11.5308758,8.77311299 11.8966238,8.40507759 11.8966238,7.95522889 L11.8966238,6.30585741 C11.8966238,3.93399076 13.8157364,2.00287629 16.1728618,2.00287629 C18.5299597,2.00287629 20.4490722,3.93399076 20.4490722,6.30585741 C20.4490722,8.67769641 18.5299597,10.6088109 16.1728618,10.6088109 L5.99481158,10.6088109 C2.73907419,10.6088109 0.0929718305,13.2714894 0.0929718305,16.5475602 C0.0929718305,19.8236034 2.73907419,22.4862818 5.99481158,22.4862818 C9.25049401,22.4862818 11.8966238,19.8236034 11.8966238,16.5475602 L11.8966238,14.9163264 C11.8966238,14.4664777 11.5308758,14.0984423 11.0838229,14.0984423 C10.6367975,14.0984423 10.271022,14.4664777 10.271022,14.9163264 L10.271022,16.5475602 C10.271022,18.9193992 8.3519095,20.8505136 5.99481158,20.8505136 C3.63768617,20.8505136 1.71857366,18.9193992 1.71857366,16.5475602 C1.71857366,14.1756935 3.63768617,12.2445791 5.99481158,12.2445791 L16.1728618,12.2445791 C19.4285442,12.2445791 22.074674,9.58190058 22.074674,6.30585741 C22.074674,3.02975893 19.4285442,0.367108098 16.1728618,0.367108098 C12.9171518,0.367108098 10.271022,3.02975893 10.271022,6.30585741 Z" id="Page-1" stroke="none" fill="#7CD3DD" fill-rule="evenodd"></path>
    </symbol>

    <!-- LogoText -->
    <symbol id="svgicon__logo--text" viewBox="30 0 103 20">
      <title>LogoText</title>
      <path d="M40.5319766,9.5152297 C40.4122979,9.66146275 40.2968951,9.77758725 40.1857648,9.86360669 C40.0746346,9.94962613 39.91649,9.9926352 39.7113264,9.9926352 C39.5147113,9.9926352 39.337333,9.94532522 39.179186,9.85070384 C39.0210391,9.75608246 38.8436608,9.65071022 38.6470457,9.53458398 C38.4504306,9.41845774 38.219625,9.31308551 37.9546221,9.21846412 C37.6896191,9.12384274 37.3605075,9.07653276 36.9672773,9.07653276 C36.4800138,9.07653276 36.0590073,9.16685182 35.7042453,9.34749264 C35.3494833,9.52813346 35.0567021,9.78618791 34.8258931,10.1216637 C34.5950841,10.4571395 34.424117,10.8678762 34.3129867,11.353886 C34.2018565,11.8398959 34.1462922,12.3882616 34.1462922,12.9989996 C34.1462922,14.2806892 34.3920573,15.265597 34.8835951,15.9537525 C35.3751328,16.641908 36.0525899,16.9859806 36.9159866,16.9859806 C37.3776047,16.9859806 37.7430468,16.9279184 38.012324,16.8117921 C38.2816012,16.6956659 38.5102697,16.5666387 38.6983363,16.4247066 C38.8864029,16.2827745 39.0595071,16.1515969 39.217654,16.0311696 C39.375801,15.9107424 39.5745502,15.8505297 39.8139077,15.8505297 C40.1302016,15.8505297 40.3695555,15.9666542 40.5319766,16.1989067 L41.686016,17.6311232 C41.2756888,18.1042301 40.843997,18.4891613 40.3909274,18.7859284 C39.9378578,19.0826955 39.4741096,19.3149445 38.9996688,19.4826824 C38.525228,19.6504203 38.0486573,19.7665448 37.5699423,19.8310594 C37.0912272,19.8955739 36.6253419,19.9278307 36.1722724,19.9278307 C35.3601665,19.9278307 34.5844034,19.7729981 33.8449596,19.4633281 C33.1055159,19.1536581 32.455841,18.7042133 31.8959154,18.1149801 C31.3359898,17.525747 30.8914754,16.8010441 30.5623588,15.9408497 C30.2332422,15.0806553 30.0686864,14.1000484 30.0686864,12.9989996 C30.0686864,12.0355819 30.2118713,11.1345417 30.4982455,10.2958522 C30.7846197,9.45716268 31.2077632,8.73030932 31.7676888,8.11527033 C32.3276144,7.50023134 33.0200311,7.01637926 33.8449596,6.66369956 C34.6698882,6.31101986 35.6251668,6.13468265 36.7108241,6.13468265 C37.7537389,6.13468265 38.6684128,6.30241804 39.4548732,6.63789385 C40.2413336,6.97336967 40.950847,7.46367311 41.5834347,8.10881891 L40.5319766,9.5152297 Z M47.5075035,0.405816652 L47.5075035,19.7213851 L43.532479,19.7213851 L43.532479,0.405816652 L47.5075035,0.405816652 Z M54.8164194,6.34112827 L54.8164194,19.7213851 L50.841395,19.7213851 L50.841395,6.34112827 L54.8164194,6.34112827 Z M55.2780352,2.67671849 C55.2780352,2.99499041 55.2139225,3.29390348 55.0856953,3.57346666 C54.9574681,3.85302984 54.7822268,4.09818156 54.5599663,4.30892919 C54.3377057,4.51967681 54.079118,4.6874122 53.7841954,4.81214039 C53.4892727,4.93686857 53.1751207,4.99923173 52.8417299,4.99923173 C52.5168875,4.99923173 52.213421,4.93686857 51.931321,4.81214039 C51.6492211,4.6874122 51.3991818,4.51967681 51.1811954,4.30892919 C50.9632091,4.09818156 50.7922421,3.85302984 50.6682891,3.57346666 C50.5443361,3.29390348 50.4823605,2.99499041 50.4823605,2.67671849 C50.4823605,2.34984462 50.5443361,2.04448019 50.6682891,1.76061604 C50.7922421,1.47675189 50.9632091,1.22729926 51.1811954,1.01225067 C51.3991818,0.797202068 51.6492211,0.629466677 51.931321,0.509039463 C52.213421,0.388612248 52.5168875,0.328399544 52.8417299,0.328399544 C53.1751207,0.328399544 53.4892727,0.388612248 53.7841954,0.509039463 C54.079118,0.629466677 54.3377057,0.797202068 54.5599663,1.01225067 C54.7822268,1.22729926 54.9574681,1.47675189 55.0856953,1.76061604 C55.2139225,2.04448019 55.2780352,2.34984462 55.2780352,2.67671849 L55.2780352,2.67671849 Z M67.6134337,9.5152297 C67.493755,9.66146275 67.3783522,9.77758725 67.2672219,9.86360669 C67.1560917,9.94962613 66.9979471,9.9926352 66.7927835,9.9926352 C66.5961684,9.9926352 66.4187901,9.94532522 66.2606432,9.85070384 C66.1024962,9.75608246 65.9251179,9.65071022 65.7285028,9.53458398 C65.5318877,9.41845774 65.3010821,9.31308551 65.0360792,9.21846412 C64.7710762,9.12384274 64.4419646,9.07653276 64.0487344,9.07653276 C63.5614709,9.07653276 63.1404644,9.16685182 62.7857024,9.34749264 C62.4309404,9.52813346 62.1381592,9.78618791 61.9073502,10.1216637 C61.6765412,10.4571395 61.5055741,10.8678762 61.3944438,11.353886 C61.2833136,11.8398959 61.2277493,12.3882616 61.2277493,12.9989996 C61.2277493,14.2806892 61.4735144,15.265597 61.9650522,15.9537525 C62.4565899,16.641908 63.134047,16.9859806 63.9974437,16.9859806 C64.4590618,16.9859806 64.8245039,16.9279184 65.0937811,16.8117921 C65.3630583,16.6956659 65.5917268,16.5666387 65.7797934,16.4247066 C65.96786,16.2827745 66.1409642,16.1515969 66.2991111,16.0311696 C66.4572581,15.9107424 66.6560073,15.8505297 66.8953648,15.8505297 C67.2116587,15.8505297 67.4510126,15.9666542 67.6134337,16.1989067 L68.7674731,17.6311232 C68.357146,18.1042301 67.9254541,18.4891613 67.4723845,18.7859284 C67.0193149,19.0826955 66.5555667,19.3149445 66.0811259,19.4826824 C65.6066851,19.6504203 65.1301144,19.7665448 64.6513994,19.8310594 C64.1726844,19.8955739 63.706799,19.9278307 63.2537295,19.9278307 C62.4416236,19.9278307 61.6658605,19.7729981 60.9264168,19.4633281 C60.186973,19.1536581 59.5372981,18.7042133 58.9773725,18.1149801 C58.4174469,17.525747 57.9729325,16.8010441 57.6438159,15.9408497 C57.3146993,15.0806553 57.1501435,14.1000484 57.1501435,12.9989996 C57.1501435,12.0355819 57.2933284,11.1345417 57.5797026,10.2958522 C57.8660768,9.45716268 58.2892203,8.73030932 58.8491459,8.11527033 C59.4090715,7.50023134 60.1014882,7.01637926 60.9264168,6.66369956 C61.7513453,6.31101986 62.7066239,6.13468265 63.7922812,6.13468265 C64.835196,6.13468265 65.7498699,6.30241804 66.5363303,6.63789385 C67.3227907,6.97336967 68.0323041,7.46367311 68.6648918,8.10881891 L67.6134337,9.5152297 Z M74.460734,0.405816652 L74.460734,11.2313089 L75.0505763,11.2313089 C75.2984823,11.2313089 75.4886832,11.1969017 75.6211847,11.1280861 C75.7536862,11.0592706 75.8797744,10.9345443 75.9994531,10.7539034 L78.5126944,6.98627084 C78.6580186,6.7626203 78.8311228,6.59918582 79.0320121,6.49596249 C79.2329015,6.39273916 79.487215,6.34112827 79.7949604,6.34112827 L83.4365957,6.34112827 L80.0001229,11.1022804 C79.8377018,11.325931 79.6603234,11.5237727 79.4679826,11.6958116 C79.2756417,11.8678505 79.0683441,12.0226831 78.8460836,12.1603142 C79.2307653,12.4527803 79.5641511,12.839862 79.846251,13.3215709 L83.5904676,19.7213851 L80.0001229,19.7213851 C79.700926,19.7213851 79.4423383,19.6719247 79.224352,19.5730023 C79.0063657,19.47408 78.8289874,19.2998932 78.6922117,19.0504369 L76.1789704,14.3150904 C76.0592916,14.1000418 75.9353405,13.9602623 75.8071132,13.8957477 C75.678886,13.8312332 75.486548,13.7989764 75.2300936,13.7989764 L74.460734,13.7989764 L74.460734,19.7213851 L70.4857095,19.7213851 L70.4857095,0.405816652 L74.460734,0.405816652 Z M94.4384377,19.7213851 C94.0623044,19.7213851 93.7780717,19.6697742 93.5857308,19.5665509 C93.3933899,19.4633276 93.2331083,19.2482822 93.1048811,18.9214083 L92.8227825,18.1859458 C92.4893917,18.46981 92.1688284,18.7192626 91.8610831,18.9343112 C91.5533377,19.1493598 91.2349115,19.3321484 90.9057949,19.4826824 C90.5766784,19.6332164 90.2261958,19.74504 89.8543368,19.8181565 C89.4824779,19.891273 89.0700198,19.9278307 88.6169502,19.9278307 C88.0100079,19.9278307 87.4586391,19.848264 86.9628271,19.689128 C86.4670151,19.529992 86.0460087,19.2955926 85.6997951,18.9859226 C85.3535816,18.6762526 85.0864455,18.2913214 84.8983789,17.8311174 C84.7103123,17.3709134 84.6162804,16.8397513 84.6162804,16.2376153 C84.6162804,15.7645083 84.7359574,15.2785058 84.9753149,14.7795931 C85.2146724,14.2806803 85.6292676,13.8269346 86.2191128,13.4183422 C86.8089581,13.0097499 87.6039551,12.6678278 88.6041275,12.3925656 C89.6043,12.1173034 90.8651822,11.9624707 92.3868121,11.9280629 L92.3868121,11.3603374 C92.3868121,10.5775606 92.2265305,10.0119912 91.9059624,9.6636125 C91.5853943,9.31523377 91.1301944,9.14104702 90.5403491,9.14104702 C90.0701826,9.14104702 89.6855067,9.1926579 89.3863098,9.29588123 C89.0871129,9.39910456 88.8199768,9.51522906 88.5848935,9.64425822 C88.3498103,9.77328738 88.1211418,9.88941188 87.8988813,9.9926352 C87.6766207,10.0958585 87.4116217,10.1474694 87.1038764,10.1474694 C86.8303249,10.1474694 86.5973823,10.0808054 86.4050414,9.94747522 C86.2127006,9.81414509 86.0609673,9.64856016 85.949837,9.45071545 L85.2317681,8.19913887 C86.0353254,7.48517752 86.9264913,6.95401545 87.9052926,6.60563673 C88.8840938,6.257258 89.9334043,6.08307125 91.0532555,6.08307125 C91.8568129,6.08307125 92.5812859,6.21424892 93.2266963,6.47660821 C93.8721068,6.7389675 94.4192014,7.10454463 94.8679968,7.57335058 C95.3167921,8.04215652 95.6608633,8.59912403 95.9002209,9.24426983 C96.1395784,9.88941562 96.2592553,10.5947644 96.2592553,11.3603374 L96.2592553,19.7213851 L94.4384377,19.7213851 Z M89.8735708,17.2827462 C90.3864798,17.2827462 90.8352684,17.1924272 91.2199501,17.0117863 C91.6046318,16.8311455 91.9935819,16.5386838 92.3868121,16.1343924 L92.3868121,14.2763819 C91.5918033,14.3107896 90.9378541,14.3796041 90.4249452,14.4828275 C89.9120363,14.5860508 89.5059894,14.715078 89.2067925,14.869913 C88.9075957,15.024748 88.7002981,15.2010852 88.5848935,15.3989299 C88.469489,15.5967746 88.4117876,15.81182 88.4117876,16.0440725 C88.4117876,16.4999755 88.5357388,16.8203931 88.7836448,17.0053349 C89.0315508,17.1902767 89.3948558,17.2827462 89.8735708,17.2827462 L89.8735708,17.2827462 Z M103.183492,6.34112827 L103.183492,19.7213851 L99.208467,19.7213851 L99.208467,6.34112827 L103.183492,6.34112827 Z M103.645107,2.67671849 C103.645107,2.99499041 103.580995,3.29390348 103.452767,3.57346666 C103.32454,3.85302984 103.149299,4.09818156 102.927038,4.30892919 C102.704778,4.51967681 102.44619,4.6874122 102.151267,4.81214039 C101.856345,4.93686857 101.542193,4.99923173 101.208802,4.99923173 C100.88396,4.99923173 100.580493,4.93686857 100.298393,4.81214039 C100.016293,4.6874122 99.7662538,4.51967681 99.5482675,4.30892919 C99.3302812,4.09818156 99.1593141,3.85302984 99.0353611,3.57346666 C98.9114081,3.29390348 98.8494326,2.99499041 98.8494326,2.67671849 C98.8494326,2.34984462 98.9114081,2.04448019 99.0353611,1.76061604 C99.1593141,1.47675189 99.3302812,1.22729926 99.5482675,1.01225067 C99.7662538,0.797202068 100.016293,0.629466677 100.298393,0.509039463 C100.580493,0.388612248 100.88396,0.328399544 101.208802,0.328399544 C101.542193,0.328399544 101.856345,0.388612248 102.151267,0.509039463 C102.44619,0.629466677 102.704778,0.797202068 102.927038,1.01225067 C103.149299,1.22729926 103.32454,1.47675189 103.452767,1.76061604 C103.580995,2.04448019 103.645107,2.34984462 103.645107,2.67671849 L103.645107,2.67671849 Z M106.389156,19.7213851 L106.389156,6.34112827 L108.851107,6.34112827 C109.099013,6.34112827 109.306311,6.39704007 109.473006,6.50886534 C109.639701,6.62069061 109.757241,6.788426 109.825629,7.01207654 L110.056437,7.78624762 C110.312892,7.54539319 110.577891,7.32174601 110.851442,7.11529935 C111.124993,6.9088527 111.417775,6.73466595 111.729794,6.59273387 C112.041814,6.4508018 112.379474,6.33897821 112.742784,6.25725974 C113.106095,6.17554127 113.501456,6.13468265 113.92888,6.13468265 C114.655501,6.13468265 115.298765,6.26155942 115.858691,6.51531677 C116.418616,6.76907411 116.890913,7.12174852 117.275594,7.57335058 C117.660276,8.02495263 117.95092,8.56256606 118.147535,9.186207 C118.34415,9.80984793 118.442456,10.4872409 118.442456,11.2184061 L118.442456,19.7213851 L114.467432,19.7213851 L114.467432,11.2184061 C114.467432,10.5646583 114.317836,10.0550008 114.018639,9.6894182 C113.719442,9.32383558 113.279202,9.14104702 112.697905,9.14104702 C112.261932,9.14104702 111.851611,9.23566698 111.46693,9.42490975 C111.082248,9.61415251 110.714669,9.86790605 110.364181,10.186178 L110.364181,19.7213851 L106.389156,19.7213851 Z M126.956702,6.13468265 C127.837196,6.13468265 128.642879,6.27231169 129.373774,6.54757389 C130.104669,6.8228361 130.732973,7.22282049 131.258705,7.74753907 C131.784436,8.27225765 132.194757,8.91524331 132.48968,9.67651535 C132.784603,10.4377874 132.932062,11.3001193 132.932062,12.263537 C132.932062,12.5646051 132.919239,12.8097568 132.893594,12.9989996 C132.867948,13.1882423 132.820932,13.3387741 132.752545,13.4505994 C132.684157,13.5624246 132.592262,13.639841 132.476857,13.6828507 C132.361453,13.7258604 132.213994,13.7473649 132.034476,13.7473649 L124.366525,13.7473649 C124.494752,14.8656177 124.832412,15.6763387 125.379515,16.1795524 C125.926618,16.6827661 126.631857,16.9343692 127.495254,16.9343692 C127.956872,16.9343692 128.354371,16.8784574 128.687761,16.7666322 C129.021152,16.6548069 129.318208,16.5300806 129.578936,16.3924495 C129.839665,16.2548184 130.079019,16.1300921 130.297005,16.0182668 C130.514992,15.9064415 130.74366,15.8505297 130.983018,15.8505297 C131.299311,15.8505297 131.538665,15.9666542 131.701087,16.1989067 L132.855126,17.6311232 C132.444799,18.1042301 132.002421,18.4891613 131.527981,18.7859284 C131.05354,19.0826955 130.566284,19.3149445 130.066197,19.4826824 C129.566111,19.6504203 129.066032,19.7665448 128.565946,19.8310594 C128.06586,19.8955739 127.589289,19.9278307 127.13622,19.9278307 C126.204435,19.9278307 125.330366,19.7751485 124.513986,19.4697795 C123.697606,19.1644105 122.983818,18.7106648 122.372602,18.1085287 C121.761385,17.5063926 121.278403,16.7580347 120.923641,15.8634326 C120.568879,14.9688304 120.391501,13.9280108 120.391501,12.7409425 C120.391501,11.8463404 120.543234,10.9990616 120.846705,10.1990808 C121.150176,9.39910004 121.586142,8.69805213 122.154616,8.09591606 C122.723091,7.49377998 123.411233,7.01637926 124.219065,6.66369956 C125.026896,6.31101986 125.939433,6.13468265 126.956702,6.13468265 L126.956702,6.13468265 Z M127.033638,8.89589284 C126.272823,8.89589284 125.678713,9.11308867 125.251289,9.54748683 C124.823865,9.981885 124.541769,10.607667 124.404993,11.4248517 L129.367362,11.4248517 C129.367362,11.1065798 129.326758,10.7969144 129.245547,10.4958464 C129.164337,10.1947784 129.031837,9.92597166 128.848045,9.6894182 C128.664252,9.45286474 128.422761,9.26147436 128.123564,9.11524131 C127.824368,8.96900827 127.461063,8.89589284 127.033638,8.89589284 L127.033638,8.89589284 Z" id="clickaine" stroke="none" fill="#FFFFFF" fill-rule="evenodd"></path>
    </symbol>

    <!-- SIDEBAR ICONS -->

    <!-- Sidebar Dashboard -->
    <symbol id="svgicon__dashboard" viewBox="0 0 19 19">
      <title>Dashboard</title>
      <path id="XMLID_15_" class="st0" d="M9.5,17.4c-4.4,0-7.9-3.6-7.9-7.9s3.6-7.9,7.9-7.9s7.9,3.6,7.9,7.9S13.9,17.4,9.5,17.4z M9.5,0
      	C4.3,0,0,4.3,0,9.5C0,14.7,4.3,19,9.5,19S19,14.7,19,9.5C19,4.3,14.7,0,9.5,0z M10.1,10.1c-0.3,0.3-0.8,0.3-1.1,0
      	C8.7,9.8,7.9,7.9,7.9,7.9S9.8,8.7,10.1,9C10.4,9.3,10.4,9.8,10.1,10.1z M5.5,5.5c0,0,2.1,4.9,2.9,5.7c0.8,0.8,2.1,0.8,2.9,0
      	c0.8-0.8,0.8-2.1,0-2.9C10.5,7.6,5.5,5.5,5.5,5.5z"/>
    </symbol>

    <symbol id="svgicon__dashboard--active" viewBox="0 0 19 19">
      <title>DashboardActive</title>
      <path id="XMLID_17_" class="st0" d="M9.5,0C4.3,0,0,4.3,0,9.5C0,14.7,4.3,19,9.5,19S19,14.7,19,9.5C19,4.3,14.7,0,9.5,0z M10.1,10.1
      c-0.3,0.3-0.8,0.3-1.1,0C8.7,9.8,7.9,7.9,7.9,7.9S9.8,8.7,10.1,9C10.4,9.3,10.4,9.8,10.1,10.1z M5.5,5.5c0,0,2.1,4.9,2.9,5.7
      c0.8,0.8,2.1,0.8,2.9,0c0.8-0.8,0.8-2.1,0-2.9C10.5,7.6,5.5,5.5,5.5,5.5z"/>
    </symbol>

    <!-- Sidebar Sites -->
    <symbol id="svg__dashboard--sites" viewBox="0 0 19 19">
      <title>Sites</title>
      <path id="XMLID_255_" class="st0" d="M17.4,5.5H1.6V2.4h6.3V4h9.5V5.5z M17.4,15.8v0.8H1.6V7.1h15.8V15.8z M17.4,2.4H9.5
      	c0-0.9-0.7-1.6-1.6-1.6H1.6C0.7,0.8,0,1.5,0,2.4v14.3c0,0.9,0.7,1.6,1.6,1.6h15.8c0.9,0,1.6-0.7,1.6-1.6V4C19,3.1,18.3,2.4,17.4,2.4
      	z"/>
    </symbol>

    <symbol id="svg__dashboard--sites--active" viewBox="0 0 19 19">
      <title>SitesActive</title>
      <g id="XMLID_248_">
        <path id="XMLID_250_" class="st0" d="M0,7.1v9.5c0,0.9,0.7,1.6,1.6,1.6h15.8c0.9,0,1.6-0.7,1.6-1.6V7.1H0z"/>
        <path id="XMLID_249_" class="st0" d="M19,5.6V4c0-0.9-0.7-1.6-1.6-1.6H9.5c0-0.9-0.7-1.6-1.6-1.6H1.6C0.7,0.8,0,1.5,0,2.4v3.2H19z"
        />
      </g>
    </symbol>

    <!-- Sidebar Profile -->
    <symbol id="svg__dashboard--profile" viewBox="0 0 19 19">
      <title>Profile</title>
      <g id="XMLID_32_">
      	<path id="XMLID_40_" class="st0" d="M17.3,14.8L17.3,14.8c0-0.8-0.2-2.6-1.9-3.1l-0.1,0c-1.6-0.4-2.9-1.3-2.9-1.3
      		c-0.4-0.3-0.9-0.2-1.2,0.2c-0.1,0.2-0.2,0.4-0.1,0.7c0,0.2,0.2,0.4,0.4,0.6c0,0,1.5,1.1,3.4,1.6c0.6,0.2,0.7,0.8,0.7,1.7
      		c0,0.1,0,0.1,0,0.1c0,0.2,0,0.6,0,0.9c-0.7,0.4-2.9,1.3-6,1.3c-3.2,0-5.3-1-6-1.3c0-0.3,0-0.6,0-0.9l0-0.1c0-0.9,0.2-1.5,0.7-1.7
      		c1.7-0.4,3-1.3,3.4-1.6c0.2-0.1,0.3-0.3,0.4-0.6c0-0.2,0-0.5-0.1-0.7c-0.3-0.4-0.8-0.5-1.2-0.2c0,0-1.3,0.9-2.9,1.3l-0.1,0
      		c-1.8,0.6-1.9,2.6-1.9,3.3l0,0.1c0,0.1,0,1.2,0.2,1.8C2,17,2.1,17.1,2.2,17.2C2.3,17.3,5,19,9.5,19c4.3,0,7-1.6,7.3-1.8
      		c0.2-0.1,0.3-0.2,0.3-0.4c0.2-0.4,0.2-1.2,0.2-1.6l0,0L17.3,14.8z"/>
      	<path id="XMLID_35_" class="st0" d="M9.4,10.2L9.4,10.2h0.1c1.2,0,2.1-0.4,2.8-1.2c1.5-1.7,1.3-4.5,1.2-4.8C13.5,2,12.5,1,11.7,0.6
      		C11.1,0.2,10.3,0,9.5,0c0,0-0.1,0-0.1,0L9.2,0C8.8,0,8,0.1,7.3,0.5C6.5,1,5.5,2,5.4,4.1c0,0.3-0.3,3.1,1.2,4.8
      		C7.3,9.7,8.3,10.1,9.4,10.2z M11.9,4.2L11.9,4.2l0,0.1c0,0.4,0.1,2.4-0.8,3.4c-0.4,0.4-0.9,0.6-1.6,0.6c-0.7,0-1.2-0.2-1.6-0.6
      		c-1-1.1-0.8-3.5-0.8-3.5l0-0.1c0.1-2.2,1.5-2.5,2.4-2.5h0C11,1.8,11.8,2.6,11.9,4.2z"/>
      </g>
    </symbol>

    <!-- Sidebar Finance -->
    <symbol id="svg__dashboard--finance" viewBox="0 0 19 19">
      <title>Finance</title>
      <path id="XMLID_84_" class="st0" d="M13.5,10.9c0.4,0,0.8,0.4,0.8,0.8c0,0.4-0.4,0.8-0.8,0.8c-0.4,0-0.8-0.4-0.8-0.8
      	C12.7,11.3,13,10.9,13.5,10.9z M13.5,14.1c1.3,0,2.4-1.1,2.4-2.4c0-1.3-1.1-2.4-2.4-2.4c-1.3,0-2.4,1.1-2.4,2.4
      	C11.1,13,12.1,14.1,13.5,14.1z M1.6,6.2h15.8v11.1H1.6V6.2z M1.6,3h12.7v1.6H1.6V3z M17.4,4.6h-1.6V3c0-0.9-0.7-1.6-1.6-1.6H1.6
      	C0.7,1.4,0,2.1,0,3v14.3c0,0.9,0.7,1.6,1.6,1.6h15.8c0.9,0,1.6-0.7,1.6-1.6V6.2C19,5.3,18.3,4.6,17.4,4.6z"/>
    </symbol>

    <!-- Sidebar Support -->
    <symbol id="svg__dashboard--support" viewBox="0 0 19 19">
      <title>Support</title>
      <path id="XMLID_192_" class="st0" d="M9.5,0C4.3,0,0,4.3,0,9.5C0,14.7,4.3,19,9.5,19S19,14.7,19,9.5C19,4.3,14.7,0,9.5,0z M17.4,8.6
      	h-3c-0.4-2-2-3.6-4-3.9v-3C14,2,17,5,17.4,8.6z M9.5,12.6c-1.7,0-3.1-1.4-3.1-3.1c0-1.7,1.4-3.1,3.1-3.1s3.1,1.4,3.1,3.1
      	C12.6,11.2,11.2,12.6,9.5,12.6z M8.6,1.6v3c-2,0.4-3.6,2-4,3.9h-3C2,5,5,2,8.6,1.6z M1.6,10.4h3c0.4,2,2,3.6,4,4v3
      	C5,17,2,14,1.6,10.4z M10.4,17.4v-3c2-0.4,3.6-2,4-4h3C17,14,14,17,10.4,17.4z"/>
    </symbol>

    <!-- Sidebar API -->
    <symbol id="svg__dashboard--api" viewBox="0 0 19 19">
      <title>API</title>
      <g id="XMLID_34_">
      	<path id="XMLID_37_" class="st0" d="M1.7,2.2C1.5,2.6,1.3,3,1.3,3.6v4c0,0.4-0.1,0.8-0.3,1C0.8,8.7,0.5,8.8,0.1,8.8H0v1.4h0.1
      		c0.4,0,0.7,0.1,0.9,0.3c0.2,0.2,0.3,0.5,0.3,1v3.9c0,0.6,0.2,1.1,0.4,1.4c0.3,0.3,0.7,0.5,1.3,0.5h1.5v-1.4H3.6
      		c-0.3,0-0.5-0.1-0.6-0.2c-0.1-0.1-0.2-0.3-0.2-0.7v-3.9c0-0.5-0.1-0.9-0.4-1.2C2.3,9.7,2.1,9.6,1.9,9.5c0.2-0.1,0.4-0.2,0.6-0.4
      		c0.3-0.3,0.4-0.7,0.4-1.2V4c0-0.3,0.1-0.5,0.2-0.7c0.1-0.1,0.3-0.2,0.6-0.2h1V1.7H3C2.4,1.7,2,1.9,1.7,2.2z"/>
      	<path id="XMLID_36_" class="st0" d="M18.9,8.8c-0.4,0-0.7-0.1-0.9-0.3c-0.2-0.2-0.3-0.5-0.3-1V3.6c0-0.6-0.2-1.1-0.4-1.4
      		c-0.3-0.3-0.7-0.5-1.2-0.5h-1.6v1.4h1c0.3,0,0.5,0.1,0.6,0.2c0.1,0.1,0.2,0.3,0.2,0.7v3.9c0,0.5,0.1,0.9,0.4,1.2
      		c0.2,0.2,0.4,0.4,0.6,0.5c-0.2,0.1-0.4,0.2-0.6,0.4c-0.2,0.3-0.4,0.7-0.4,1.2V15c0,0.3-0.1,0.5-0.2,0.7c-0.1,0.1-0.3,0.2-0.6,0.2
      		h-1v1.4H16c0.6,0,1-0.2,1.3-0.5c0.3-0.3,0.4-0.8,0.4-1.3v-4c0-0.4,0.1-0.8,0.3-1c0.2-0.2,0.5-0.3,0.9-0.3H19V8.8H18.9z"/>
      </g>
    </symbol>
  </defs>
</svg>
